<?xml version="1.0" encoding="UTF-8"?>
<svg xmlns="http://www.w3.org/2000/svg"
    xmlns:dc="http://purl.org/dc/elements/1.1/"
    xmlns:rdf="http://www.w3.org/1999/02/22-rdf-syntax-ns#"
    id="Ebene_1" version="1.1" viewBox="0 0 1024 1024">
  <title>IcapFlow Logo</title>
  <desc>Logo für das IcapFlow-Projekt. Es zeigt einen Datenstrom, der auf ein Schutzschild mit einem Haken trifft, was Sicherheit und Validierung symbolisiert.</desc>
  <metadata>
    <rdf:RDF>
     <rdf:Description rdf:about=""
        dc:format="image/svg+xml"
        dc:title="IcapFlow Project Logo"
        dc:creator="ndrstmr"
        dc:date="2025-06-18"
        dc:rights="Copyright (c) 2025 ndrstmr. All Rights Reserved."
        dc:publisher="ndrstmr"
        dc:language="en">
       <dc:description>Official logo for the IcapFlow PHP library, symbolizing data flow and security validation.</dc:description>
     </rdf:Description>
    </rdf:RDF>
  </metadata>
  <defs>
    <style>.st1{fill:#02476d}</style>
  </defs>
  <path d="M505 574c15.33-15.07 38.71-34.75 51.51-50.99 6.75-8.57 5.47-12.9-1-21.02-23.79-22.35-46.25-46.13-69.51-68.99-.29-19.16.37-38.38.04-57.54-.07-4.24-1.49-8.11-1.08-13 .75-8.75 5.6-11.43 12.83-15.17 52.08-26.95 108.55-48.84 160.53-76.47 22.38-9.59 44.55 7.75 64.32 17.04 44.68 20.99 89.37 41.96 134.05 62.95 3.62 2.11 6.3 5.66 7.24 9.76.19 50.88 2.06 102.26-10 151.88-20.79 85.57-69.99 144.94-144.63 189.37-8.71 5.18-26.88 16.41-36.72 16.1s-37.1-16.63-46.5-22.49c-48.17-30.05-88.6-71.34-115.58-121.44l-5.5.02Zm277.72-189.81c-1.66.37-2.51 1.37-3.74 2.29-14.39 10.69-32.7 33.65-45.95 47.05-23.54 23.79-47.5 47.17-71 71-5.58 4.12-8.8 4.57-14.52.47-17.88-12.82-35.56-40.1-53.49-53.52-7.09-5.31-11.82-.31-17.55 4.49-4.34 3.64-14.71 13.47-13.27 19.26.49 1.96 10.54 12.87 12.77 15.29 23.23 25.19 49.48 48.95 73.01 73.99 6.7 5.83 12.15 1.02 17.55-3.49 47.5-47.85 95.85-94.84 141.91-144.09 1.43-2.24 2.86-4.56 2.57-7.34-.41-3.93-17.36-21.72-21.05-24.04-2.46-1.55-4.31-2-7.23-1.35Z" style="fill:#19a1c6"/>
  <path d="M486 433c23.26 22.86 45.72 46.64 69.51 68.99 6.47 8.12 7.75 12.45 1 21.02-12.8 16.24-36.18 35.92-51.51 50.99-46.23 45.43-66.76 75.84-137.46 79.04-51.39 2.32-104.51-1.86-156.09 0-6.41-.19-10.41-4.69-6.45-10.56 2.37-3.51 18.11-20.15 21.29-21.7 1.65-.81 3.71-1 5.47-1.53 47.25-2.59 96.8 2.58 143.79-.31 39.66-2.44 60.02-23 86.43-48.48 18.66-18 36.46-36.91 55.09-54.94l.87-1.89c-10.34-11.01-21.43-21.29-31.95-32.11C452.94 447.51 422 404.39 370.51 402l-168.76-.24c-2.01-.43-3.76-1.41-5.49-2.45-2.12-1.28-14.95-16.24-15.71-18.37-3.39-9.42 6.04-11.46 12.93-11.99 53.81-4.09 112.73 3.18 167.08 0 21.81 1.81 44.04 4.56 64.14 13.86 24.32 11.27 42.57 31.74 61.32 50.18Z" class="st1"/>
  <path d="M407.68 463.33c11.17 6.01 25.15 19.21 34.85 28.64 3.05 2.97 14.03 12.88 15.53 15.47s1.59 5.69 0 8.11c-26.02 25.89-45.64 51.82-85.51 54.48l-200.52-.56c-11.51-5.09 13.3-23.42 16.07-28.88l5.61-3.39 173.78-.22c13.62-1.02 30.5-8.04 39.91-18.09 1.86-1.99 5.2-5.54 4.46-8.18-.27-.95-10.28-10.97-11.85-12.23-10.01-8.05-22.32-10.55-34.52-13.48l-214.93-.07c-3.69-.59-8.42-6.1-11.07-8.93-6.39-6.83-19.33-21.15-2.02-23.05 75.57 2.88 153.82-3.7 229.08-.01 13.75.67 28.77 3.73 41.14 10.38Z" class="st1"/>
</svg>